<mxfile host="Electron" modified="2023-06-13T17:41:49.439Z" agent="Mozilla/5.0 (Windows NT 10.0; Win64; x64) AppleWebKit/537.36 (KHTML, like Gecko) draw.io/21.3.7 Chrome/112.0.5615.204 Electron/24.5.0 Safari/537.36" etag="YiHYSjOURIPlYQLDXDkE" version="21.3.7" type="device">
  <diagram name="Page-1" id="HOmAjxG15NI5TZKHyiX0">
    <mxGraphModel dx="1098" dy="1188" grid="1" gridSize="10" guides="1" tooltips="1" connect="1" arrows="1" fold="1" page="1" pageScale="1" pageWidth="827" pageHeight="1169" math="0" shadow="0">
      <root>
        <mxCell id="0" />
        <mxCell id="1" parent="0" />
        <mxCell id="x7FTDdGDPWHXTWIzU9cA-28" value="" style="group" vertex="1" connectable="0" parent="1">
          <mxGeometry x="300" y="350" width="136" height="110" as="geometry" />
        </mxCell>
        <mxCell id="x7FTDdGDPWHXTWIzU9cA-1" value="" style="ellipse;whiteSpace=wrap;html=1;aspect=fixed;gradientColor=none;fillColor=#000000;" vertex="1" parent="x7FTDdGDPWHXTWIzU9cA-28">
          <mxGeometry width="20" height="20" as="geometry" />
        </mxCell>
        <mxCell id="x7FTDdGDPWHXTWIzU9cA-2" value="" style="ellipse;whiteSpace=wrap;html=1;aspect=fixed;gradientColor=none;fillColor=#000000;" vertex="1" parent="x7FTDdGDPWHXTWIzU9cA-28">
          <mxGeometry y="30" width="20" height="20" as="geometry" />
        </mxCell>
        <mxCell id="x7FTDdGDPWHXTWIzU9cA-3" value="" style="ellipse;whiteSpace=wrap;html=1;aspect=fixed;gradientColor=none;fillColor=#000000;" vertex="1" parent="x7FTDdGDPWHXTWIzU9cA-28">
          <mxGeometry y="60" width="20" height="20" as="geometry" />
        </mxCell>
        <mxCell id="x7FTDdGDPWHXTWIzU9cA-4" value="" style="ellipse;whiteSpace=wrap;html=1;aspect=fixed;gradientColor=none;fillColor=#000000;" vertex="1" parent="x7FTDdGDPWHXTWIzU9cA-28">
          <mxGeometry y="90" width="20" height="20" as="geometry" />
        </mxCell>
        <mxCell id="x7FTDdGDPWHXTWIzU9cA-26" style="edgeStyle=none;shape=connector;rounded=0;orthogonalLoop=1;jettySize=auto;html=1;exitX=0;exitY=0.5;exitDx=0;exitDy=0;entryX=1;entryY=0.5;entryDx=0;entryDy=0;labelBackgroundColor=default;strokeColor=default;fontFamily=Helvetica;fontSize=11;fontColor=default;endArrow=classic;" edge="1" parent="x7FTDdGDPWHXTWIzU9cA-28" source="x7FTDdGDPWHXTWIzU9cA-5" target="x7FTDdGDPWHXTWIzU9cA-4">
          <mxGeometry relative="1" as="geometry" />
        </mxCell>
        <mxCell id="x7FTDdGDPWHXTWIzU9cA-27" style="edgeStyle=none;shape=connector;rounded=0;orthogonalLoop=1;jettySize=auto;html=1;exitX=0;exitY=0.5;exitDx=0;exitDy=0;entryX=1;entryY=0.5;entryDx=0;entryDy=0;labelBackgroundColor=default;strokeColor=default;fontFamily=Helvetica;fontSize=11;fontColor=default;endArrow=classic;" edge="1" parent="x7FTDdGDPWHXTWIzU9cA-28" source="x7FTDdGDPWHXTWIzU9cA-5" target="x7FTDdGDPWHXTWIzU9cA-2">
          <mxGeometry relative="1" as="geometry" />
        </mxCell>
        <mxCell id="x7FTDdGDPWHXTWIzU9cA-5" value="" style="ellipse;whiteSpace=wrap;html=1;aspect=fixed;gradientColor=none;fillColor=#000000;" vertex="1" parent="x7FTDdGDPWHXTWIzU9cA-28">
          <mxGeometry x="116" width="20" height="20" as="geometry" />
        </mxCell>
        <mxCell id="x7FTDdGDPWHXTWIzU9cA-6" value="" style="ellipse;whiteSpace=wrap;html=1;aspect=fixed;gradientColor=none;fillColor=#000000;" vertex="1" parent="x7FTDdGDPWHXTWIzU9cA-28">
          <mxGeometry x="116" y="30" width="20" height="20" as="geometry" />
        </mxCell>
        <mxCell id="x7FTDdGDPWHXTWIzU9cA-20" style="edgeStyle=none;shape=connector;rounded=0;orthogonalLoop=1;jettySize=auto;html=1;exitX=1;exitY=0.5;exitDx=0;exitDy=0;entryX=0;entryY=0.5;entryDx=0;entryDy=0;labelBackgroundColor=default;strokeColor=default;fontFamily=Helvetica;fontSize=11;fontColor=default;endArrow=classic;" edge="1" parent="x7FTDdGDPWHXTWIzU9cA-28" source="x7FTDdGDPWHXTWIzU9cA-1" target="x7FTDdGDPWHXTWIzU9cA-6">
          <mxGeometry relative="1" as="geometry" />
        </mxCell>
        <mxCell id="x7FTDdGDPWHXTWIzU9cA-22" style="edgeStyle=none;shape=connector;rounded=0;orthogonalLoop=1;jettySize=auto;html=1;exitX=1;exitY=0.5;exitDx=0;exitDy=0;entryX=0;entryY=0.5;entryDx=0;entryDy=0;labelBackgroundColor=default;strokeColor=default;fontFamily=Helvetica;fontSize=11;fontColor=default;endArrow=classic;" edge="1" parent="x7FTDdGDPWHXTWIzU9cA-28" source="x7FTDdGDPWHXTWIzU9cA-3" target="x7FTDdGDPWHXTWIzU9cA-6">
          <mxGeometry relative="1" as="geometry" />
        </mxCell>
        <mxCell id="x7FTDdGDPWHXTWIzU9cA-24" style="edgeStyle=none;shape=connector;rounded=0;orthogonalLoop=1;jettySize=auto;html=1;exitX=0;exitY=0.5;exitDx=0;exitDy=0;entryX=1;entryY=0.5;entryDx=0;entryDy=0;labelBackgroundColor=default;strokeColor=default;fontFamily=Helvetica;fontSize=11;fontColor=default;endArrow=classic;" edge="1" parent="x7FTDdGDPWHXTWIzU9cA-28" source="x7FTDdGDPWHXTWIzU9cA-7" target="x7FTDdGDPWHXTWIzU9cA-2">
          <mxGeometry relative="1" as="geometry" />
        </mxCell>
        <mxCell id="x7FTDdGDPWHXTWIzU9cA-25" style="edgeStyle=none;shape=connector;rounded=0;orthogonalLoop=1;jettySize=auto;html=1;exitX=0;exitY=0.5;exitDx=0;exitDy=0;entryX=1;entryY=0.5;entryDx=0;entryDy=0;labelBackgroundColor=default;strokeColor=default;fontFamily=Helvetica;fontSize=11;fontColor=default;endArrow=classic;" edge="1" parent="x7FTDdGDPWHXTWIzU9cA-28" source="x7FTDdGDPWHXTWIzU9cA-7" target="x7FTDdGDPWHXTWIzU9cA-4">
          <mxGeometry relative="1" as="geometry" />
        </mxCell>
        <mxCell id="x7FTDdGDPWHXTWIzU9cA-7" value="" style="ellipse;whiteSpace=wrap;html=1;aspect=fixed;gradientColor=none;fillColor=#000000;" vertex="1" parent="x7FTDdGDPWHXTWIzU9cA-28">
          <mxGeometry x="116" y="60" width="20" height="20" as="geometry" />
        </mxCell>
        <mxCell id="x7FTDdGDPWHXTWIzU9cA-8" value="" style="ellipse;whiteSpace=wrap;html=1;aspect=fixed;gradientColor=none;fillColor=#000000;" vertex="1" parent="x7FTDdGDPWHXTWIzU9cA-28">
          <mxGeometry x="116" y="90" width="20" height="20" as="geometry" />
        </mxCell>
        <mxCell id="x7FTDdGDPWHXTWIzU9cA-21" style="edgeStyle=none;shape=connector;rounded=0;orthogonalLoop=1;jettySize=auto;html=1;exitX=1;exitY=0.5;exitDx=0;exitDy=0;entryX=0;entryY=0.5;entryDx=0;entryDy=0;labelBackgroundColor=default;strokeColor=default;fontFamily=Helvetica;fontSize=11;fontColor=default;endArrow=classic;" edge="1" parent="x7FTDdGDPWHXTWIzU9cA-28" source="x7FTDdGDPWHXTWIzU9cA-1" target="x7FTDdGDPWHXTWIzU9cA-8">
          <mxGeometry relative="1" as="geometry" />
        </mxCell>
        <mxCell id="x7FTDdGDPWHXTWIzU9cA-23" style="edgeStyle=none;shape=connector;rounded=0;orthogonalLoop=1;jettySize=auto;html=1;exitX=1;exitY=0.5;exitDx=0;exitDy=0;entryX=0;entryY=0.5;entryDx=0;entryDy=0;labelBackgroundColor=default;strokeColor=default;fontFamily=Helvetica;fontSize=11;fontColor=default;endArrow=classic;" edge="1" parent="x7FTDdGDPWHXTWIzU9cA-28" source="x7FTDdGDPWHXTWIzU9cA-3" target="x7FTDdGDPWHXTWIzU9cA-8">
          <mxGeometry relative="1" as="geometry" />
        </mxCell>
        <mxCell id="x7FTDdGDPWHXTWIzU9cA-30" value="" style="group;rotation=-120;" vertex="1" connectable="0" parent="1">
          <mxGeometry x="120" y="250" width="136" height="110" as="geometry" />
        </mxCell>
        <mxCell id="x7FTDdGDPWHXTWIzU9cA-31" value="" style="ellipse;whiteSpace=wrap;html=1;aspect=fixed;gradientColor=none;fillColor=#000000;rotation=-120;" vertex="1" parent="x7FTDdGDPWHXTWIzU9cA-30">
          <mxGeometry x="48" y="118" width="20" height="20" as="geometry" />
        </mxCell>
        <mxCell id="x7FTDdGDPWHXTWIzU9cA-32" value="" style="ellipse;whiteSpace=wrap;html=1;aspect=fixed;gradientColor=none;fillColor=#000000;rotation=-120;" vertex="1" parent="x7FTDdGDPWHXTWIzU9cA-30">
          <mxGeometry x="74" y="103" width="20" height="20" as="geometry" />
        </mxCell>
        <mxCell id="x7FTDdGDPWHXTWIzU9cA-33" value="" style="ellipse;whiteSpace=wrap;html=1;aspect=fixed;gradientColor=none;fillColor=#000000;rotation=-120;" vertex="1" parent="x7FTDdGDPWHXTWIzU9cA-30">
          <mxGeometry x="100" y="88" width="20" height="20" as="geometry" />
        </mxCell>
        <mxCell id="x7FTDdGDPWHXTWIzU9cA-34" value="" style="ellipse;whiteSpace=wrap;html=1;aspect=fixed;gradientColor=none;fillColor=#000000;rotation=-120;" vertex="1" parent="x7FTDdGDPWHXTWIzU9cA-30">
          <mxGeometry x="126" y="73" width="20" height="20" as="geometry" />
        </mxCell>
        <mxCell id="x7FTDdGDPWHXTWIzU9cA-35" style="edgeStyle=none;shape=connector;rounded=0;orthogonalLoop=1;jettySize=auto;html=1;exitX=0;exitY=0.5;exitDx=0;exitDy=0;entryX=1;entryY=0.5;entryDx=0;entryDy=0;labelBackgroundColor=default;strokeColor=default;fontFamily=Helvetica;fontSize=11;fontColor=default;endArrow=classic;" edge="1" parent="x7FTDdGDPWHXTWIzU9cA-30" source="x7FTDdGDPWHXTWIzU9cA-37" target="x7FTDdGDPWHXTWIzU9cA-34">
          <mxGeometry relative="1" as="geometry" />
        </mxCell>
        <mxCell id="x7FTDdGDPWHXTWIzU9cA-36" style="edgeStyle=none;shape=connector;rounded=0;orthogonalLoop=1;jettySize=auto;html=1;exitX=0;exitY=0.5;exitDx=0;exitDy=0;entryX=1;entryY=0.5;entryDx=0;entryDy=0;labelBackgroundColor=default;strokeColor=default;fontFamily=Helvetica;fontSize=11;fontColor=default;endArrow=classic;" edge="1" parent="x7FTDdGDPWHXTWIzU9cA-30" source="x7FTDdGDPWHXTWIzU9cA-37" target="x7FTDdGDPWHXTWIzU9cA-32">
          <mxGeometry relative="1" as="geometry" />
        </mxCell>
        <mxCell id="x7FTDdGDPWHXTWIzU9cA-37" value="" style="ellipse;whiteSpace=wrap;html=1;aspect=fixed;gradientColor=none;fillColor=#000000;rotation=-120;" vertex="1" parent="x7FTDdGDPWHXTWIzU9cA-30">
          <mxGeometry x="-10" y="17" width="20" height="20" as="geometry" />
        </mxCell>
        <mxCell id="x7FTDdGDPWHXTWIzU9cA-38" value="" style="ellipse;whiteSpace=wrap;html=1;aspect=fixed;gradientColor=none;fillColor=#000000;rotation=-120;" vertex="1" parent="x7FTDdGDPWHXTWIzU9cA-30">
          <mxGeometry x="16" y="2" width="20" height="20" as="geometry" />
        </mxCell>
        <mxCell id="x7FTDdGDPWHXTWIzU9cA-39" style="edgeStyle=none;shape=connector;rounded=0;orthogonalLoop=1;jettySize=auto;html=1;exitX=1;exitY=0.5;exitDx=0;exitDy=0;entryX=0;entryY=0.5;entryDx=0;entryDy=0;labelBackgroundColor=default;strokeColor=default;fontFamily=Helvetica;fontSize=11;fontColor=default;endArrow=classic;" edge="1" parent="x7FTDdGDPWHXTWIzU9cA-30" source="x7FTDdGDPWHXTWIzU9cA-31" target="x7FTDdGDPWHXTWIzU9cA-38">
          <mxGeometry relative="1" as="geometry" />
        </mxCell>
        <mxCell id="x7FTDdGDPWHXTWIzU9cA-40" style="edgeStyle=none;shape=connector;rounded=0;orthogonalLoop=1;jettySize=auto;html=1;exitX=1;exitY=0.5;exitDx=0;exitDy=0;entryX=0;entryY=0.5;entryDx=0;entryDy=0;labelBackgroundColor=default;strokeColor=default;fontFamily=Helvetica;fontSize=11;fontColor=default;endArrow=classic;" edge="1" parent="x7FTDdGDPWHXTWIzU9cA-30" source="x7FTDdGDPWHXTWIzU9cA-33" target="x7FTDdGDPWHXTWIzU9cA-38">
          <mxGeometry relative="1" as="geometry" />
        </mxCell>
        <mxCell id="x7FTDdGDPWHXTWIzU9cA-41" style="edgeStyle=none;shape=connector;rounded=0;orthogonalLoop=1;jettySize=auto;html=1;exitX=0;exitY=0.5;exitDx=0;exitDy=0;entryX=1;entryY=0.5;entryDx=0;entryDy=0;labelBackgroundColor=default;strokeColor=default;fontFamily=Helvetica;fontSize=11;fontColor=default;endArrow=classic;" edge="1" parent="x7FTDdGDPWHXTWIzU9cA-30" source="x7FTDdGDPWHXTWIzU9cA-43" target="x7FTDdGDPWHXTWIzU9cA-32">
          <mxGeometry relative="1" as="geometry" />
        </mxCell>
        <mxCell id="x7FTDdGDPWHXTWIzU9cA-42" style="edgeStyle=none;shape=connector;rounded=0;orthogonalLoop=1;jettySize=auto;html=1;exitX=0;exitY=0.5;exitDx=0;exitDy=0;entryX=1;entryY=0.5;entryDx=0;entryDy=0;labelBackgroundColor=default;strokeColor=default;fontFamily=Helvetica;fontSize=11;fontColor=default;endArrow=classic;" edge="1" parent="x7FTDdGDPWHXTWIzU9cA-30" source="x7FTDdGDPWHXTWIzU9cA-43" target="x7FTDdGDPWHXTWIzU9cA-34">
          <mxGeometry relative="1" as="geometry" />
        </mxCell>
        <mxCell id="x7FTDdGDPWHXTWIzU9cA-43" value="" style="ellipse;whiteSpace=wrap;html=1;aspect=fixed;gradientColor=none;fillColor=#000000;rotation=-120;" vertex="1" parent="x7FTDdGDPWHXTWIzU9cA-30">
          <mxGeometry x="42" y="-13" width="20" height="20" as="geometry" />
        </mxCell>
        <mxCell id="x7FTDdGDPWHXTWIzU9cA-44" value="" style="ellipse;whiteSpace=wrap;html=1;aspect=fixed;gradientColor=none;fillColor=#000000;rotation=-120;" vertex="1" parent="x7FTDdGDPWHXTWIzU9cA-30">
          <mxGeometry x="68" y="-28" width="20" height="20" as="geometry" />
        </mxCell>
        <mxCell id="x7FTDdGDPWHXTWIzU9cA-45" style="edgeStyle=none;shape=connector;rounded=0;orthogonalLoop=1;jettySize=auto;html=1;exitX=1;exitY=0.5;exitDx=0;exitDy=0;entryX=0;entryY=0.5;entryDx=0;entryDy=0;labelBackgroundColor=default;strokeColor=default;fontFamily=Helvetica;fontSize=11;fontColor=default;endArrow=classic;" edge="1" parent="x7FTDdGDPWHXTWIzU9cA-30" source="x7FTDdGDPWHXTWIzU9cA-31" target="x7FTDdGDPWHXTWIzU9cA-44">
          <mxGeometry relative="1" as="geometry" />
        </mxCell>
        <mxCell id="x7FTDdGDPWHXTWIzU9cA-46" style="edgeStyle=none;shape=connector;rounded=0;orthogonalLoop=1;jettySize=auto;html=1;exitX=1;exitY=0.5;exitDx=0;exitDy=0;entryX=0;entryY=0.5;entryDx=0;entryDy=0;labelBackgroundColor=default;strokeColor=default;fontFamily=Helvetica;fontSize=11;fontColor=default;endArrow=classic;" edge="1" parent="x7FTDdGDPWHXTWIzU9cA-30" source="x7FTDdGDPWHXTWIzU9cA-33" target="x7FTDdGDPWHXTWIzU9cA-44">
          <mxGeometry relative="1" as="geometry" />
        </mxCell>
        <mxCell id="x7FTDdGDPWHXTWIzU9cA-48" value="" style="group;rotation=120;" vertex="1" connectable="0" parent="1">
          <mxGeometry x="120" y="460" width="136" height="110" as="geometry" />
        </mxCell>
        <mxCell id="x7FTDdGDPWHXTWIzU9cA-49" value="" style="ellipse;whiteSpace=wrap;html=1;aspect=fixed;gradientColor=none;fillColor=#000000;rotation=120;" vertex="1" parent="x7FTDdGDPWHXTWIzU9cA-48">
          <mxGeometry x="126" y="17" width="20" height="20" as="geometry" />
        </mxCell>
        <mxCell id="x7FTDdGDPWHXTWIzU9cA-50" value="" style="ellipse;whiteSpace=wrap;html=1;aspect=fixed;gradientColor=none;fillColor=#000000;rotation=120;" vertex="1" parent="x7FTDdGDPWHXTWIzU9cA-48">
          <mxGeometry x="100" y="2" width="20" height="20" as="geometry" />
        </mxCell>
        <mxCell id="x7FTDdGDPWHXTWIzU9cA-51" value="" style="ellipse;whiteSpace=wrap;html=1;aspect=fixed;gradientColor=none;fillColor=#000000;rotation=120;" vertex="1" parent="x7FTDdGDPWHXTWIzU9cA-48">
          <mxGeometry x="74" y="-13" width="20" height="20" as="geometry" />
        </mxCell>
        <mxCell id="x7FTDdGDPWHXTWIzU9cA-52" value="" style="ellipse;whiteSpace=wrap;html=1;aspect=fixed;gradientColor=none;fillColor=#000000;rotation=120;" vertex="1" parent="x7FTDdGDPWHXTWIzU9cA-48">
          <mxGeometry x="48" y="-28" width="20" height="20" as="geometry" />
        </mxCell>
        <mxCell id="x7FTDdGDPWHXTWIzU9cA-53" style="edgeStyle=none;shape=connector;rounded=0;orthogonalLoop=1;jettySize=auto;html=1;exitX=0;exitY=0.5;exitDx=0;exitDy=0;entryX=1;entryY=0.5;entryDx=0;entryDy=0;labelBackgroundColor=default;strokeColor=default;fontFamily=Helvetica;fontSize=11;fontColor=default;endArrow=classic;" edge="1" parent="x7FTDdGDPWHXTWIzU9cA-48" source="x7FTDdGDPWHXTWIzU9cA-55" target="x7FTDdGDPWHXTWIzU9cA-52">
          <mxGeometry relative="1" as="geometry" />
        </mxCell>
        <mxCell id="x7FTDdGDPWHXTWIzU9cA-54" style="edgeStyle=none;shape=connector;rounded=0;orthogonalLoop=1;jettySize=auto;html=1;exitX=0;exitY=0.5;exitDx=0;exitDy=0;entryX=1;entryY=0.5;entryDx=0;entryDy=0;labelBackgroundColor=default;strokeColor=default;fontFamily=Helvetica;fontSize=11;fontColor=default;endArrow=classic;" edge="1" parent="x7FTDdGDPWHXTWIzU9cA-48" source="x7FTDdGDPWHXTWIzU9cA-55" target="x7FTDdGDPWHXTWIzU9cA-50">
          <mxGeometry relative="1" as="geometry" />
        </mxCell>
        <mxCell id="x7FTDdGDPWHXTWIzU9cA-55" value="" style="ellipse;whiteSpace=wrap;html=1;aspect=fixed;gradientColor=none;fillColor=#000000;rotation=120;" vertex="1" parent="x7FTDdGDPWHXTWIzU9cA-48">
          <mxGeometry x="68" y="118" width="20" height="20" as="geometry" />
        </mxCell>
        <mxCell id="x7FTDdGDPWHXTWIzU9cA-56" value="" style="ellipse;whiteSpace=wrap;html=1;aspect=fixed;gradientColor=none;fillColor=#000000;rotation=120;" vertex="1" parent="x7FTDdGDPWHXTWIzU9cA-48">
          <mxGeometry x="42" y="103" width="20" height="20" as="geometry" />
        </mxCell>
        <mxCell id="x7FTDdGDPWHXTWIzU9cA-57" style="edgeStyle=none;shape=connector;rounded=0;orthogonalLoop=1;jettySize=auto;html=1;exitX=1;exitY=0.5;exitDx=0;exitDy=0;entryX=0;entryY=0.5;entryDx=0;entryDy=0;labelBackgroundColor=default;strokeColor=default;fontFamily=Helvetica;fontSize=11;fontColor=default;endArrow=classic;" edge="1" parent="x7FTDdGDPWHXTWIzU9cA-48" source="x7FTDdGDPWHXTWIzU9cA-49" target="x7FTDdGDPWHXTWIzU9cA-56">
          <mxGeometry relative="1" as="geometry" />
        </mxCell>
        <mxCell id="x7FTDdGDPWHXTWIzU9cA-58" style="edgeStyle=none;shape=connector;rounded=0;orthogonalLoop=1;jettySize=auto;html=1;exitX=1;exitY=0.5;exitDx=0;exitDy=0;entryX=0;entryY=0.5;entryDx=0;entryDy=0;labelBackgroundColor=default;strokeColor=default;fontFamily=Helvetica;fontSize=11;fontColor=default;endArrow=classic;" edge="1" parent="x7FTDdGDPWHXTWIzU9cA-48" source="x7FTDdGDPWHXTWIzU9cA-51" target="x7FTDdGDPWHXTWIzU9cA-56">
          <mxGeometry relative="1" as="geometry" />
        </mxCell>
        <mxCell id="x7FTDdGDPWHXTWIzU9cA-59" style="edgeStyle=none;shape=connector;rounded=0;orthogonalLoop=1;jettySize=auto;html=1;exitX=0;exitY=0.5;exitDx=0;exitDy=0;entryX=1;entryY=0.5;entryDx=0;entryDy=0;labelBackgroundColor=default;strokeColor=default;fontFamily=Helvetica;fontSize=11;fontColor=default;endArrow=classic;" edge="1" parent="x7FTDdGDPWHXTWIzU9cA-48" source="x7FTDdGDPWHXTWIzU9cA-61" target="x7FTDdGDPWHXTWIzU9cA-50">
          <mxGeometry relative="1" as="geometry" />
        </mxCell>
        <mxCell id="x7FTDdGDPWHXTWIzU9cA-60" style="edgeStyle=none;shape=connector;rounded=0;orthogonalLoop=1;jettySize=auto;html=1;exitX=0;exitY=0.5;exitDx=0;exitDy=0;entryX=1;entryY=0.5;entryDx=0;entryDy=0;labelBackgroundColor=default;strokeColor=default;fontFamily=Helvetica;fontSize=11;fontColor=default;endArrow=classic;" edge="1" parent="x7FTDdGDPWHXTWIzU9cA-48" source="x7FTDdGDPWHXTWIzU9cA-61" target="x7FTDdGDPWHXTWIzU9cA-52">
          <mxGeometry relative="1" as="geometry" />
        </mxCell>
        <mxCell id="x7FTDdGDPWHXTWIzU9cA-61" value="" style="ellipse;whiteSpace=wrap;html=1;aspect=fixed;gradientColor=none;fillColor=#000000;rotation=120;" vertex="1" parent="x7FTDdGDPWHXTWIzU9cA-48">
          <mxGeometry x="16" y="88" width="20" height="20" as="geometry" />
        </mxCell>
        <mxCell id="x7FTDdGDPWHXTWIzU9cA-62" value="" style="ellipse;whiteSpace=wrap;html=1;aspect=fixed;gradientColor=none;fillColor=#000000;rotation=120;" vertex="1" parent="x7FTDdGDPWHXTWIzU9cA-48">
          <mxGeometry x="-10" y="73" width="20" height="20" as="geometry" />
        </mxCell>
        <mxCell id="x7FTDdGDPWHXTWIzU9cA-63" style="edgeStyle=none;shape=connector;rounded=0;orthogonalLoop=1;jettySize=auto;html=1;exitX=1;exitY=0.5;exitDx=0;exitDy=0;entryX=0;entryY=0.5;entryDx=0;entryDy=0;labelBackgroundColor=default;strokeColor=default;fontFamily=Helvetica;fontSize=11;fontColor=default;endArrow=classic;" edge="1" parent="x7FTDdGDPWHXTWIzU9cA-48" source="x7FTDdGDPWHXTWIzU9cA-49" target="x7FTDdGDPWHXTWIzU9cA-62">
          <mxGeometry relative="1" as="geometry" />
        </mxCell>
        <mxCell id="x7FTDdGDPWHXTWIzU9cA-64" style="edgeStyle=none;shape=connector;rounded=0;orthogonalLoop=1;jettySize=auto;html=1;exitX=1;exitY=0.5;exitDx=0;exitDy=0;entryX=0;entryY=0.5;entryDx=0;entryDy=0;labelBackgroundColor=default;strokeColor=default;fontFamily=Helvetica;fontSize=11;fontColor=default;endArrow=classic;" edge="1" parent="x7FTDdGDPWHXTWIzU9cA-48" source="x7FTDdGDPWHXTWIzU9cA-51" target="x7FTDdGDPWHXTWIzU9cA-62">
          <mxGeometry relative="1" as="geometry" />
        </mxCell>
        <mxCell id="x7FTDdGDPWHXTWIzU9cA-71" style="edgeStyle=none;shape=connector;rounded=0;orthogonalLoop=1;jettySize=auto;html=1;exitX=0;exitY=0.5;exitDx=0;exitDy=0;entryX=0;entryY=0.5;entryDx=0;entryDy=0;labelBackgroundColor=default;strokeColor=default;fontFamily=Helvetica;fontSize=11;fontColor=default;endArrow=classic;" edge="1" parent="1" source="x7FTDdGDPWHXTWIzU9cA-32" target="x7FTDdGDPWHXTWIzU9cA-51">
          <mxGeometry relative="1" as="geometry" />
        </mxCell>
        <mxCell id="x7FTDdGDPWHXTWIzU9cA-73" style="edgeStyle=none;shape=connector;rounded=0;orthogonalLoop=1;jettySize=auto;html=1;exitX=0;exitY=0.5;exitDx=0;exitDy=0;entryX=0;entryY=0.5;entryDx=0;entryDy=0;labelBackgroundColor=default;strokeColor=default;fontFamily=Helvetica;fontSize=11;fontColor=default;endArrow=classic;" edge="1" parent="1" source="x7FTDdGDPWHXTWIzU9cA-33" target="x7FTDdGDPWHXTWIzU9cA-2">
          <mxGeometry relative="1" as="geometry" />
        </mxCell>
        <mxCell id="x7FTDdGDPWHXTWIzU9cA-74" style="edgeStyle=none;shape=connector;rounded=0;orthogonalLoop=1;jettySize=auto;html=1;exitX=0;exitY=0.5;exitDx=0;exitDy=0;entryX=0;entryY=0.5;entryDx=0;entryDy=0;labelBackgroundColor=default;strokeColor=default;fontFamily=Helvetica;fontSize=11;fontColor=default;endArrow=classic;" edge="1" parent="1" source="x7FTDdGDPWHXTWIzU9cA-50" target="x7FTDdGDPWHXTWIzU9cA-3">
          <mxGeometry relative="1" as="geometry" />
        </mxCell>
        <mxCell id="x7FTDdGDPWHXTWIzU9cA-193" style="edgeStyle=none;shape=connector;rounded=0;orthogonalLoop=1;jettySize=auto;html=1;exitX=0;exitY=1;exitDx=0;exitDy=0;entryX=0;entryY=0;entryDx=0;entryDy=0;labelBackgroundColor=default;strokeColor=default;fontFamily=Helvetica;fontSize=11;fontColor=default;endArrow=classic;" edge="1" parent="1" source="x7FTDdGDPWHXTWIzU9cA-4" target="x7FTDdGDPWHXTWIzU9cA-49">
          <mxGeometry relative="1" as="geometry" />
        </mxCell>
        <mxCell id="x7FTDdGDPWHXTWIzU9cA-194" style="edgeStyle=none;shape=connector;rounded=0;orthogonalLoop=1;jettySize=auto;html=1;exitX=0;exitY=1;exitDx=0;exitDy=0;entryX=0;entryY=0;entryDx=0;entryDy=0;labelBackgroundColor=default;strokeColor=default;fontFamily=Helvetica;fontSize=11;fontColor=default;endArrow=classic;" edge="1" parent="1" source="x7FTDdGDPWHXTWIzU9cA-52" target="x7FTDdGDPWHXTWIzU9cA-31">
          <mxGeometry relative="1" as="geometry" />
        </mxCell>
        <mxCell id="x7FTDdGDPWHXTWIzU9cA-195" style="edgeStyle=none;shape=connector;rounded=0;orthogonalLoop=1;jettySize=auto;html=1;exitX=0;exitY=1;exitDx=0;exitDy=0;entryX=0;entryY=0;entryDx=0;entryDy=0;labelBackgroundColor=default;strokeColor=default;fontFamily=Helvetica;fontSize=11;fontColor=default;endArrow=classic;" edge="1" parent="1" source="x7FTDdGDPWHXTWIzU9cA-34" target="x7FTDdGDPWHXTWIzU9cA-1">
          <mxGeometry relative="1" as="geometry" />
        </mxCell>
      </root>
    </mxGraphModel>
  </diagram>
</mxfile>
